<svg width="512" height="512" viewBox="0 0 680 680" xmlns="http://www.w3.org/2000/svg">
  <rect width="680" height="680" fill="#5BC8F5" rx="120"/>
  <rect x="0" y="0" width="680" height="260" fill="#2E86C1" rx="120"/>
  <rect x="0" y="120" width="680" height="200" fill="#5BC8F5"/>
  <circle cx="108" cy="108" r="54" fill="#FFEE44"/>
  <rect x="94" y="22" width="26" height="32" fill="#FFEE44" rx="4"/>
  <rect x="94" y="160" width="26" height="32" fill="#FFEE44" rx="4"/>
  <rect x="22" y="94" width="32" height="26" fill="#FFEE44" rx="4"/>
  <rect x="160" y="94" width="32" height="26" fill="#FFEE44" rx="4"/>
  <rect x="42" y="42" width="24" height="16" fill="#FFEE44" rx="4" transform="rotate(45 54 50)"/>
  <rect x="144" y="42" width="24" height="16" fill="#FFEE44" rx="4" transform="rotate(-45 156 50)"/>
  <rect x="42" y="144" width="24" height="16" fill="#FFEE44" rx="4" transform="rotate(-45 54 152)"/>
  <rect x="144" y="144" width="24" height="16" fill="#FFEE44" rx="4" transform="rotate(45 156 152)"/>
  <rect x="370" y="70" width="220" height="60" fill="white" rx="30"/>
  <rect x="400" y="46" width="110" height="60" fill="white" rx="30"/>
  <rect x="454" y="38" width="88" height="52" fill="white" rx="26"/>
  <rect x="348" y="88" width="88" height="44" fill="white" rx="22"/>
  <rect x="542" y="82" width="66" height="50" fill="white" rx="25"/>
  <rect x="190" y="190" width="150" height="46" fill="white" rx="23"/>
  <rect x="216" y="168" width="88" height="46" fill="white" rx="23"/>
  <rect x="260" y="158" width="66" height="42" fill="white" rx="21"/>
  <rect x="172" y="204" width="62" height="34" fill="white" rx="17"/>
  <rect x="304" y="198" width="52" height="40" fill="white" rx="20"/>
  <rect x="556" y="210" width="110" height="38" fill="white" rx="19"/>
  <rect x="578" y="194" width="64" height="38" fill="white" rx="19"/>
  <rect x="0" y="454" width="680" height="226" fill="#1A8FB5"/>
  <rect x="0" y="454" width="680" height="38" fill="#2496C0"/>
  <rect x="0" y="500" width="680" height="34" fill="#1A8FB5"/>
  <rect x="0" y="542" width="680" height="34" fill="#2496C0"/>
  <rect x="0" y="584" width="680" height="96" fill="#1A8FB5"/>
  <rect x="0" y="448" width="680" height="12" fill="#7EE8F8" opacity="0.5"/>
  <rect x="50" y="466" width="120" height="10" fill="#7EE8F8" rx="5"/>
  <rect x="260" y="466" width="80" height="10" fill="#7EE8F8" rx="5"/>
  <rect x="460" y="466" width="130" height="10" fill="#7EE8F8" rx="5"/>
  <rect x="40" y="512" width="90" height="10" fill="#7EE8F8" rx="5"/>
  <rect x="210" y="512" width="140" height="10" fill="#7EE8F8" rx="5"/>
  <rect x="450" y="512" width="100" height="10" fill="#7EE8F8" rx="5"/>
  <rect x="170" y="416" width="340" height="28" fill="#8B5E3C" rx="4"/>
  <rect x="214" y="418" width="6" height="24" fill="#6B4828" rx="1"/>
  <rect x="278" y="418" width="6" height="24" fill="#6B4828" rx="1"/>
  <rect x="340" y="418" width="6" height="24" fill="#6B4828" rx="1"/>
  <rect x="402" y="418" width="6" height="24" fill="#6B4828" rx="1"/>
  <rect x="458" y="418" width="6" height="24" fill="#6B4828" rx="1"/>
  <rect x="200" y="264" width="280" height="160" fill="#F0E0C0" rx="4"/>
  <rect x="306" y="352" width="68" height="72" fill="#8B5E3C" rx="4"/>
  <rect x="334" y="380" width="10" height="10" fill="#D4A860" rx="2"/>
  <rect x="222" y="292" width="70" height="62" fill="#87CEEB" rx="4"/>
  <rect x="253" y="292" width="8" height="62" fill="#F0E0C0"/>
  <rect x="222" y="319" width="70" height="8" fill="#F0E0C0"/>
  <rect x="388" y="292" width="70" height="62" fill="#87CEEB" rx="4"/>
  <rect x="419" y="292" width="8" height="62" fill="#F0E0C0"/>
  <rect x="388" y="319" width="70" height="8" fill="#F0E0C0"/>
  <polygon points="178,268 340,118 502,268" fill="#C0392B"/>
  <polygon points="178,268 340,118 502,268 502,252 340,104 178,252" fill="#E74C3C"/>
  <rect x="396" y="160" width="38" height="78" fill="#A93226" rx="2"/>
  <rect x="390" y="150" width="50" height="20" fill="#922B21" rx="2"/>
</svg>
